<svg width="66" height="50" viewBox="0 0 66 50" fill="none" xmlns="http://www.w3.org/2000/svg">
<g id="Group">
<path id="Vector" d="M39.1754 2H26.8245C24.9641 2 23.4561 3.43269 23.4561 5.2V10.5333C23.4561 12.3006 24.9641 13.7333 26.8245 13.7333H39.1754C41.0357 13.7333 42.5438 12.3006 42.5438 10.5333V5.2C42.5438 3.43269 41.0357 2 39.1754 2Z" stroke="#9F5757" stroke-width="2.90851" stroke-linecap="round"/>
<path id="Vector_2" d="M60.5088 9.46667H5.49123C3.01079 9.46667 1 11.3769 1 13.7333V45.7333C1 48.0898 3.01079 50 5.49123 50H60.5088C62.9892 50 65 48.0898 65 45.7333V13.7333C65 11.3769 62.9892 9.46667 60.5088 9.46667Z" fill="#BD7575"/>
<path id="Vector_3" d="M2.12305 23.3333H25.7287M40.2985 23.3333H63.9042" stroke="#FFDD95" stroke-width="2.90851" stroke-linecap="square"/>
<path id="Vector_4" fill-rule="evenodd" clip-rule="evenodd" d="M27.9473 19.0667H38.0525V27.6H27.9473V19.0667Z" stroke="#FFAF40" stroke-width="5.81703" stroke-linecap="round"/>
</g>
</svg>
