<svg width="44" height="70" viewBox="0 0 44 70" fill="none" xmlns="http://www.w3.org/2000/svg">
<path d="M14.678 16.5235C14.558 16.5235 14.445 16.5694 14.3391 16.6612C14.2403 16.7529 14.1909 16.8588 14.1909 16.9788C14.1909 17.1412 14.2403 17.2718 14.3391 17.3706C14.445 17.4694 14.558 17.5188 14.678 17.5188H19.0191C19.1391 17.5188 19.238 17.4694 19.3156 17.3706C19.3932 17.2718 19.4321 17.1412 19.4321 16.9788C19.4321 16.8588 19.3932 16.7529 19.3156 16.6612C19.238 16.5694 19.1391 16.5235 19.0191 16.5235H14.678ZM19.0191 15.1365C19.2662 15.1365 19.5027 15.1894 19.7285 15.2953C19.9544 15.3941 20.1521 15.5282 20.3215 15.6976C20.498 15.8671 20.6356 16.0647 20.7344 16.2906C20.8403 16.5094 20.8932 16.7388 20.8932 16.9788C20.8932 17.2471 20.8403 17.4976 20.7344 17.7306C20.6356 17.9635 20.498 18.1647 20.3215 18.3341C20.1521 18.5106 19.9544 18.6482 19.7285 18.7471C19.5027 18.8529 19.2662 18.9059 19.0191 18.9059H14.678C14.4097 18.9059 14.1627 18.8529 13.9368 18.7471C13.7109 18.6482 13.5132 18.5106 13.3438 18.3341C13.1744 18.1647 13.0403 17.9635 12.9415 17.7306C12.8497 17.4976 12.8038 17.2471 12.8038 16.9788C12.8038 16.7388 12.8497 16.5094 12.9415 16.2906C13.0403 16.0647 13.1744 15.8671 13.3438 15.6976C13.5132 15.5282 13.7109 15.3941 13.9368 15.2953C14.1627 15.1894 14.4097 15.1365 14.678 15.1365H19.0191ZM15.8427 8.94235L17.9921 14.1412H16.2662L14.9744 10.9541L13.6932 14.1412H11.9674L14.1168 8.94235H15.8427ZM20.8509 8.88941V14.3529H19.305V11.96H17.7591V10.5729H19.305V8.88941H20.8509ZM29.8868 9.69412V8.88941H31.3374V17.1059H24.8045V17.6671H31.3374V18.9059H23.3116V15.9835H29.8445V15.4435H23.3116V14.2259H29.8868V12.8282H28.1821V11.6318H29.8868V10.8906H28.1821V9.69412H29.8868ZM22.8668 13.6647V8.94235H24.3492V10.0329H26.0539V8.94235H27.5363V13.6647H22.8668ZM26.0539 12.3412V11.3247H24.3492V12.3412H26.0539Z" fill="#515B77"/>
<path d="M0.423828 0H43.6329V56.0647C43.6329 63.3744 37.7073 69.3 30.3976 69.3H13.6591C6.34947 69.3 0.423828 63.3744 0.423828 56.0647V0Z" fill="#7ACEFA" fill-opacity="0.15"/>
<path d="M25.999 42C25.999 44.2091 24.2082 46 21.999 46C19.7899 46 17.999 44.2091 17.999 42C17.999 39.7909 19.7899 38 21.999 38C24.2082 38 25.999 39.7909 25.999 42Z" stroke="#8FD6FB" stroke-width="3" stroke-linecap="round" stroke-linejoin="round"/>
<path d="M21.999 49C18.133 49 14.999 52.134 14.999 56H28.999C28.999 52.134 25.865 49 21.999 49Z" stroke="#8FD6FB" stroke-width="3" stroke-linecap="round" stroke-linejoin="round"/>
</svg>
