<svg width="44" height="70" viewBox="0 0 44 70" fill="none" xmlns="http://www.w3.org/2000/svg">
<g id="Group">
<path id="Rectangle" d="M0.423828 0H43.6329V56.0647C43.6329 63.3744 37.7073 69.3 30.3976 69.3H13.6591C6.34947 69.3 0.423828 63.3744 0.423828 56.0647V0Z" fill="#7ACEFA" fill-opacity="0.15"/>
<g id="Icon">
<path d="M25.999 42C25.999 44.2091 24.2082 46 21.999 46C19.7899 46 17.999 44.2091 17.999 42C17.999 39.7909 19.7899 38 21.999 38C24.2082 38 25.999 39.7909 25.999 42Z" stroke="#8FD6FB" stroke-width="3" stroke-linecap="round" stroke-linejoin="round"/>
<path d="M21.999 49C18.133 49 14.999 52.134 14.999 56H28.999C28.999 52.134 25.865 49 21.999 49Z" stroke="#8FD6FB" stroke-width="3" stroke-linecap="round" stroke-linejoin="round"/>
</g>
</g>
</svg>
