<svg width="44" height="70" viewBox="0 0 44 70" fill="none" xmlns="http://www.w3.org/2000/svg">
<path d="M0.423828 0H43.6329V56.0647C43.6329 63.3744 37.7073 69.3 30.3976 69.3H13.6591C6.34947 69.3 0.423828 63.3744 0.423828 56.0647V0Z" fill="#FEF6EC"/>
<path fill-rule="evenodd" clip-rule="evenodd" d="M19.9995 49.8241C20.1585 49.8241 20.3175 49.8642 20.4625 49.9433L24.2317 52.0219L23.5147 47.6358C23.4577 47.2919 23.5667 46.9416 23.8047 46.6978L26.8408 43.6L22.6376 42.9543C22.3126 42.9047 22.0316 42.6905 21.8856 42.3803L19.9995 38.3772L18.1134 42.3803C17.9674 42.6905 17.6864 42.9047 17.3614 42.9543L13.1582 43.6L16.1943 46.6978C16.4324 46.9416 16.5414 47.2919 16.4844 47.6358L15.7673 52.0219L19.5365 49.9433C19.6815 49.8642 19.8405 49.8241 19.9995 49.8241ZM25.5613 54.9997C25.4023 54.9997 25.2433 54.9606 25.0983 54.8804L19.999 52.0696L14.8998 54.8804C14.5618 55.0661 14.1538 55.0334 13.8487 54.7971C13.5407 54.5607 13.3877 54.1608 13.4517 53.7652L14.4238 47.827L10.3036 43.6224C10.0286 43.3428 9.93057 42.9228 10.0476 42.5398C10.1636 42.1568 10.4776 41.8783 10.8546 41.8202L16.5559 40.9466L19.103 35.5381C19.441 34.8206 20.557 34.8206 20.8951 35.5381L23.4422 40.9466L29.1434 41.8202C29.5205 41.8783 29.8345 42.1568 29.9505 42.5398C30.0675 42.9228 29.9695 43.3428 29.6945 43.6224L25.5743 47.827L26.5463 53.7652C26.6103 54.1608 26.4573 54.5607 26.1493 54.7971C25.9763 54.9321 25.7693 54.9997 25.5613 54.9997Z" fill="#F7C480"/>
</svg>
