<svg width="62" height="64" viewBox="0 0 62 64" fill="none" xmlns="http://www.w3.org/2000/svg">
<g id="Graduation Cap">
<path id="Vector" d="M61.707 29.2925L57.707 25.2925C57.6142 25.1996 57.5039 25.1259 57.3826 25.0757C57.2613 25.0254 57.1313 24.9995 57 24.9995C56.8687 24.9995 56.7386 25.0254 56.6173 25.0757C56.496 25.1259 56.3858 25.1996 56.2929 25.2925L52.2929 29.2925C52.2001 29.3853 52.1264 29.4955 52.0761 29.6168C52.0258 29.7381 52 29.8682 52 29.9995V39.9995C52 40.1308 52.0258 40.2609 52.076 40.3822C52.1263 40.5036 52.2 40.6138 52.2928 40.7067C52.3857 40.7995 52.4959 40.8732 52.6173 40.9234C52.7386 40.9737 52.8687 40.9995 53 40.9995H61C61.1313 40.9995 61.2614 40.9737 61.3827 40.9234C61.5041 40.8732 61.6143 40.7995 61.7072 40.7067C61.8 40.6138 61.8737 40.5036 61.924 40.3822C61.9742 40.2609 62 40.1308 62 39.9995V29.9995C62 29.8682 61.9741 29.7381 61.9239 29.6168C61.8736 29.4955 61.7999 29.3853 61.707 29.2925Z" fill="#FFD07B"/>
<path id="Vector_2" d="M44 16.9995H14C13.8687 16.9995 13.7386 17.0253 13.6173 17.0756C13.4959 17.1258 13.3857 17.1995 13.2928 17.2923C13.2 17.3852 13.1263 17.4954 13.0761 17.6168C13.0258 17.7381 13 17.8682 13 17.9995V32.9995C13 33.1898 13.0542 33.3762 13.1565 33.5368C13.2587 33.6973 13.4047 33.8253 13.5772 33.9058L28.5772 40.9058C28.7096 40.9675 28.8539 40.9995 29 40.9995C29.1461 40.9995 29.2904 40.9675 29.4228 40.9058L44.4229 33.9058C44.5953 33.8253 44.7413 33.6973 44.8435 33.5368C44.9458 33.3762 45 33.1898 45 32.9995V17.9995C45 17.8682 44.9742 17.7381 44.924 17.6168C44.8737 17.4954 44.8 17.3852 44.7072 17.2923C44.6143 17.1995 44.5041 17.1258 44.3827 17.0756C44.2614 17.0253 44.1313 16.9995 44 16.9995Z" fill="#9B7FC9"/>
<path id="Vector_3" d="M44 16.9995H14C13.8687 16.9995 13.7386 17.0253 13.6173 17.0756C13.4959 17.1258 13.3857 17.1995 13.2928 17.2923C13.2 17.3852 13.1263 17.4954 13.0761 17.6168C13.0258 17.7381 13 17.8682 13 17.9995V27.6368L28.5772 34.9058C28.7096 34.9675 28.8539 34.9995 29 34.9995C29.1461 34.9995 29.2904 34.9675 29.4228 34.9058L45 27.6367V17.9995C45 17.8682 44.9742 17.7381 44.924 17.6168C44.8737 17.4954 44.8 17.3852 44.7072 17.2923C44.6143 17.1995 44.5041 17.1258 44.3827 17.0756C44.2614 17.0253 44.1313 16.9995 44 16.9995Z" fill="#B38DDB"/>
<path id="Vector_4" d="M57.4209 13.0923L29.4209 0.0922828C29.2889 0.031483 29.1453 0 29 0C28.8547 0 28.7111 0.031483 28.5791 0.0922828L0.579104 13.0923C0.406134 13.1726 0.259719 13.3006 0.157116 13.4614C0.0545138 13.6221 0 13.8088 0 13.9995C0 14.1902 0.0545138 14.3769 0.157116 14.5377C0.259719 14.6984 0.406134 14.8265 0.579104 14.9067L28.5791 27.9067C28.711 27.9679 28.8546 27.9995 29 27.9995C29.1454 27.9995 29.289 27.9679 29.4209 27.9067L57.4209 14.9067C57.5939 14.8265 57.7403 14.6984 57.8429 14.5377C57.9455 14.3769 58 14.1902 58 13.9995C58 13.8088 57.9455 13.6221 57.8429 13.4614C57.7403 13.3006 57.5939 13.1726 57.4209 13.0923Z" fill="#C99AE8"/>
<path id="Vector_5" d="M57 22.9995C56.8687 22.9995 56.7386 22.9737 56.6173 22.9235C56.4959 22.8732 56.3857 22.7996 56.2928 22.7067C56.2 22.6138 56.1263 22.5036 56.076 22.3822C56.0258 22.2609 56 22.1308 56 21.9995V14.9995H29C28.7348 14.9995 28.4804 14.8942 28.2929 14.7066C28.1054 14.5191 28 14.2647 28 13.9995C28 13.7343 28.1054 13.4799 28.2929 13.2924C28.4804 13.1049 28.7348 12.9995 29 12.9995H57C57.1313 12.9995 57.2614 13.0253 57.3827 13.0756C57.5041 13.1258 57.6143 13.1995 57.7072 13.2923C57.8 13.3852 57.8737 13.4954 57.924 13.6168C57.9742 13.7381 58 13.8682 58 13.9995V21.9995C58 22.1308 57.9742 22.2609 57.924 22.3822C57.8737 22.5036 57.8 22.6138 57.7072 22.7067C57.6143 22.7996 57.5041 22.8732 57.3827 22.9235C57.2614 22.9737 57.1313 22.9995 57 22.9995Z" fill="#FFD07B"/>
<path id="Vector_6" d="M57 28.9995C59.2091 28.9995 61 27.2087 61 24.9995C61 22.7904 59.2091 20.9995 57 20.9995C54.7909 20.9995 53 22.7904 53 24.9995C53 27.2087 54.7909 28.9995 57 28.9995Z" fill="#EFAA5E"/>
<path id="Vector_7" d="M48.773 59.9644C47.4336 59.5991 46 56.311 46 51.9995C46 47.688 47.4336 44.3999 48.773 44.0347C49.0191 43.9675 49.2302 43.8088 49.3632 43.5911C49.4961 43.3735 49.5409 43.1132 49.4883 42.8636C49.4358 42.614 49.2898 42.3939 49.0803 42.2483C48.8708 42.1028 48.6137 42.0428 48.3614 42.0806L29 44.9888L9.63232 42.0796L9.14209 42.0093C9.09502 42.0026 9.04754 41.9994 9 41.9995C6.14941 41.9995 4 46.2983 4 51.9995C4 57.7007 6.14941 61.9995 9 61.9995C9.04754 61.9997 9.09502 61.9964 9.14209 61.9897L29 59.0103L48.3613 61.9185C48.6136 61.9563 48.8708 61.8963 49.0803 61.7507C49.2897 61.6052 49.4357 61.3851 49.4883 61.1355C49.5409 60.8859 49.4961 60.6256 49.3631 60.4079C49.2301 60.1902 49.0191 60.0315 48.773 59.9644Z" fill="#DBEDFF"/>
<path id="Vector_8" d="M33 42.9995H25C24.4698 43.0001 23.9614 43.211 23.5865 43.586C23.2115 43.9609 23.0006 44.4693 23 44.9995V62.9995C23 63.1629 23.0401 63.3239 23.1167 63.4683C23.1933 63.6126 23.3041 63.736 23.4395 63.8277C23.5748 63.9193 23.7305 63.9764 23.893 63.9939C24.0555 64.0114 24.2198 63.9889 24.3716 63.9282L29 62.0767L33.6284 63.9282C33.7802 63.9889 33.9445 64.0114 34.107 63.9939C34.2695 63.9764 34.4252 63.9193 34.5605 63.8277C34.6959 63.736 34.8067 63.6126 34.8833 63.4683C34.9599 63.3239 35 63.1629 35 62.9995V44.9995C34.9994 44.4693 34.7885 43.9609 34.4135 43.586C34.0386 43.211 33.5302 43.0001 33 42.9995Z" fill="#C99AE8"/>
<path id="Vector_9" d="M49 41.9995C48.9525 41.9994 48.905 42.0026 48.8579 42.0093L48.3677 42.0796C48.3268 42.0856 48.2864 42.0941 48.2466 42.105C45.7461 42.7876 44 46.856 44 51.9995C44 57.1431 45.7461 61.2114 48.2466 61.894C48.2864 61.9049 48.3268 61.9134 48.3677 61.9194L48.8579 61.9897C48.905 61.9964 48.9525 61.9997 49 61.9995C51.8506 61.9995 54 57.7007 54 51.9995C54 46.2983 51.8506 41.9995 49 41.9995Z" fill="#B7CDED"/>
<path id="Vector_10" d="M47 50.9995H44.0234C44.0085 51.328 44 51.6611 44 51.9995C44 57.1431 45.7461 61.2114 48.2466 61.894C48.2864 61.9049 48.3268 61.9134 48.3677 61.9194L48.8579 61.9897C48.905 61.9964 48.9525 61.9997 49 61.9995C49.3418 61.9983 49.6806 61.9351 50 61.8132V53.9995C49.9991 53.2041 49.6828 52.4416 49.1204 51.8792C48.5579 51.3167 47.7954 51.0004 47 50.9995Z" fill="#9EAFDB"/>
</g>
</svg>
