<svg width="44" height="70" viewBox="0 0 44 70" fill="none" xmlns="http://www.w3.org/2000/svg">
<path d="M0.423828 0H43.6329V56.0647C43.6329 63.3744 37.7073 69.3 30.3976 69.3H13.6591C6.34947 69.3 0.423828 63.3744 0.423828 56.0647V0Z" fill="#FEF6EC"/>
<path fill-rule="evenodd" clip-rule="evenodd" d="M22.9995 49.8241C23.1585 49.8241 23.3175 49.8642 23.4625 49.9433L27.2317 52.0219L26.5147 47.6358C26.4577 47.2919 26.5667 46.9416 26.8047 46.6978L29.8408 43.6L25.6376 42.9543C25.3126 42.9047 25.0316 42.6905 24.8856 42.3803L22.9995 38.3772L21.1134 42.3803C20.9674 42.6905 20.6864 42.9047 20.3614 42.9543L16.1582 43.6L19.1943 46.6978C19.4324 46.9416 19.5414 47.2919 19.4844 47.6358L18.7673 52.0219L22.5365 49.9433C22.6815 49.8642 22.8405 49.8241 22.9995 49.8241ZM28.5613 54.9997C28.4023 54.9997 28.2433 54.9606 28.0983 54.8804L22.999 52.0696L17.8998 54.8804C17.5618 55.0661 17.1538 55.0334 16.8487 54.7971C16.5407 54.5607 16.3877 54.1608 16.4517 53.7652L17.4238 47.827L13.3036 43.6224C13.0286 43.3428 12.9306 42.9228 13.0476 42.5398C13.1636 42.1568 13.4776 41.8783 13.8546 41.8202L19.5559 40.9466L22.103 35.5381C22.441 34.8206 23.557 34.8206 23.8951 35.5381L26.4422 40.9466L32.1434 41.8202C32.5205 41.8783 32.8345 42.1568 32.9505 42.5398C33.0675 42.9228 32.9695 43.3428 32.6945 43.6224L28.5743 47.827L29.5463 53.7652C29.6103 54.1608 29.4573 54.5607 29.1493 54.7971C28.9763 54.9321 28.7693 54.9997 28.5613 54.9997Z" fill="#F7C480"/>
<path d="M21.1743 12.2353H20.0943V16.6082L19.692 18.9059H18.2414L18.6543 16.6082H12.3543V15.3694H18.5167V8.88941H20.0943V10.8059H21.1743V12.2353ZM15.2978 9.26H17.2355V10.52H15.9225C16.219 10.6965 16.459 10.9188 16.6425 11.1871C16.8261 11.4482 16.9178 11.7376 16.9178 12.0553V12.7224C16.9178 12.9835 16.8508 13.2306 16.7167 13.4635C16.5896 13.6965 16.4167 13.9012 16.1978 14.0776C15.979 14.2471 15.7214 14.3812 15.4249 14.48C15.1355 14.5788 14.832 14.6282 14.5143 14.6282C14.1896 14.6282 13.8861 14.5788 13.6037 14.48C13.3214 14.3812 13.0743 14.2471 12.8625 14.0776C12.6508 13.9012 12.4814 13.6965 12.3543 13.4635C12.2343 13.2306 12.1743 12.9835 12.1743 12.7224V12.0976C12.1743 11.7447 12.2661 11.4376 12.4496 11.1765C12.6331 10.9082 12.8661 10.6894 13.1484 10.52H11.8567V9.26H13.8155V8.52941H15.2978V9.26ZM15.552 12.3412C15.552 12.2212 15.5237 12.1082 15.4672 12.0024C15.4178 11.8894 15.3472 11.7941 15.2555 11.7165C15.1708 11.6318 15.0649 11.5682 14.9378 11.5259C14.8178 11.4765 14.6908 11.4518 14.5567 11.4518C14.4155 11.4518 14.2849 11.4765 14.1649 11.5259C14.0449 11.5682 13.939 11.6318 13.8472 11.7165C13.7555 11.7941 13.6814 11.8894 13.6249 12.0024C13.5755 12.1082 13.5508 12.2212 13.5508 12.3412V12.5212C13.5508 12.6482 13.5755 12.7647 13.6249 12.8706C13.6814 12.9765 13.7555 13.0718 13.8472 13.1565C13.939 13.2341 14.0449 13.2976 14.1649 13.3471C14.2849 13.3894 14.4155 13.4106 14.5567 13.4106C14.6908 13.4106 14.8178 13.3894 14.9378 13.3471C15.0649 13.2976 15.1708 13.2341 15.2555 13.1565C15.3472 13.0718 15.4178 12.9765 15.4672 12.8706C15.5237 12.7647 15.552 12.6482 15.552 12.5212V12.3412ZM29.2785 15.2635V12.2035H27.955V10.7741H29.2785V8.88941H30.8667V18.9059H22.8197V15.2635H29.2785ZM26.0914 11.5259L27.7009 12.7329V14.4165L25.0538 12.3306L22.3961 14.4059V12.7224L25.5514 10.3188H22.3961V8.94235H27.6373V10.3188L26.0914 11.5259ZM24.3656 17.5188H29.3103V16.64H24.3656V17.5188Z" fill="#515B77"/>
</svg>
