<svg width="44" height="70" viewBox="0 0 44 70" fill="none" xmlns="http://www.w3.org/2000/svg">
<path d="M0 0H43.2091V56.0647C43.2091 63.3744 37.2835 69.3 29.9738 69.3H13.2353C5.92564 69.3 0 63.3744 0 56.0647V0Z" fill="#FDF1F3"/>
<path fill-rule="evenodd" clip-rule="evenodd" d="M22.3492 51.707C21.9937 51.536 21.564 51.539 21.2178 51.72L16.9345 53.92L18.6121 48.21C19.6121 48.71 20.7675 49 21.9995 49C23.2314 49 24.3868 48.71 25.3879 48.21L27.0896 54.002L22.3492 51.707ZM21.9993 39C24.5204 39 26.5706 40.794 26.5706 43C26.5706 45.206 24.5204 47 21.9993 47C19.4783 47 17.4281 45.206 17.4281 43C17.4281 40.794 19.4783 39 21.9993 39ZM29.9637 55.751L27.3249 46.772C28.2803 45.74 28.8563 44.429 28.8563 43C28.8563 39.691 25.781 37 21.9994 37C18.219 37 15.1425 39.691 15.1425 43C15.1425 44.429 15.7185 45.74 16.6739 46.772L14.0362 55.751C13.9208 56.143 14.0865 56.556 14.4557 56.799C14.8236 57.042 15.3242 57.064 15.7208 56.862L21.812 53.733L28.3032 56.875C28.4758 56.959 28.6666 57 28.8563 57C29.1043 57 29.3512 56.93 29.5569 56.791C29.9169 56.547 30.078 56.138 29.9637 55.751Z" fill="#E8899E"/>
<path d="M14.3119 17.6035H19.4366V12.3094H18.1343V10.88H19.4366V8.88941H20.9296V18.9059H12.9037V15.3271H14.3119V17.6035ZM15.4449 10.3612H12.459V8.94235H17.8908V10.3612L16.3555 11.4941L17.8908 12.68V14.3953L15.1378 12.3941L12.459 14.3741V12.5424L15.4449 10.3612ZM25.3808 13.22V11.3141H26.9267V13.22H29.0126L29.4679 10.3612H23.3267V8.94235H31.0561V10.3612L30.6008 13.22H31.7867V14.3847H22.6808V13.22H25.3808ZM29.4573 15.1153C29.7185 15.1153 29.962 15.1612 30.1879 15.2529C30.4208 15.3447 30.622 15.4753 30.7914 15.6447C30.9608 15.8071 31.095 16.0047 31.1938 16.2376C31.2926 16.4706 31.342 16.7282 31.342 17.0106C31.342 17.2929 31.2926 17.5506 31.1938 17.7835C31.095 18.0165 30.9608 18.2141 30.7914 18.3765C30.622 18.5459 30.4208 18.6765 30.1879 18.7682C29.962 18.86 29.7185 18.9059 29.4573 18.9059H25.0103C24.7491 18.9059 24.502 18.86 24.2691 18.7682C24.0432 18.6765 23.8455 18.5459 23.6761 18.3765C23.5067 18.2141 23.3726 18.0165 23.2738 17.7835C23.175 17.5506 23.1255 17.2929 23.1255 17.0106C23.1255 16.7282 23.175 16.4706 23.2738 16.2376C23.3726 16.0047 23.5067 15.8071 23.6761 15.6447C23.8455 15.4753 24.0432 15.3447 24.2691 15.2529C24.502 15.1612 24.7491 15.1153 25.0103 15.1153H29.4573ZM25.0103 16.4494C24.8832 16.4494 24.7738 16.5024 24.682 16.6082C24.5973 16.7141 24.555 16.8482 24.555 17.0106C24.555 17.1729 24.5973 17.3071 24.682 17.4129C24.7738 17.5188 24.8832 17.5718 25.0103 17.5718H29.4573C29.5844 17.5718 29.6903 17.5188 29.775 17.4129C29.8667 17.3071 29.9126 17.1729 29.9126 17.0106C29.9126 16.8482 29.8667 16.7141 29.775 16.6082C29.6903 16.5024 29.5844 16.4494 29.4573 16.4494H25.0103Z" fill="#515B77"/>
</svg>
