<svg width="44" height="70" viewBox="0 0 44 70" fill="none" xmlns="http://www.w3.org/2000/svg">
<path d="M0 0H43.2091V56.0647C43.2091 63.3744 37.2835 69.3 29.9738 69.3H13.2353C5.92564 69.3 0 63.3744 0 56.0647V0Z" fill="#FDF1F3"/>
<path fill-rule="evenodd" clip-rule="evenodd" d="M22.3492 51.707C21.9937 51.536 21.564 51.539 21.2178 51.72L16.9345 53.92L18.6121 48.21C19.6121 48.71 20.7675 49 21.9995 49C23.2314 49 24.3868 48.71 25.3879 48.21L27.0896 54.002L22.3492 51.707ZM21.9993 39C24.5204 39 26.5706 40.794 26.5706 43C26.5706 45.206 24.5204 47 21.9993 47C19.4783 47 17.4281 45.206 17.4281 43C17.4281 40.794 19.4783 39 21.9993 39ZM29.9637 55.751L27.3249 46.772C28.2803 45.74 28.8563 44.429 28.8563 43C28.8563 39.691 25.781 37 21.9994 37C18.219 37 15.1425 39.691 15.1425 43C15.1425 44.429 15.7185 45.74 16.6739 46.772L14.0362 55.751C13.9208 56.143 14.0865 56.556 14.4557 56.799C14.8236 57.042 15.3242 57.064 15.7208 56.862L21.812 53.733L28.3032 56.875C28.4758 56.959 28.6666 57 28.8563 57C29.1043 57 29.3512 56.93 29.5569 56.791C29.9169 56.547 30.078 56.138 29.9637 55.751Z" fill="#E8899E"/>
</svg>
