<svg width="18" height="20" viewBox="0 0 18 20" fill="none" xmlns="http://www.w3.org/2000/svg">
<g id="Group 1000005837">
<path id="Vector (Stroke)" fill-rule="evenodd" clip-rule="evenodd" d="M8.99951 2.32039C7.32463 2.32039 5.96688 3.67814 5.96688 5.35301C5.96688 7.02787 7.32463 8.38562 8.99951 8.38562C10.6744 8.38562 12.0321 7.02787 12.0321 5.35301C12.0321 3.67814 10.6744 2.32039 8.99951 2.32039ZM4.48047 5.35301C4.48047 2.85722 6.50371 0.833984 8.99951 0.833984C11.4953 0.833984 13.5185 2.85722 13.5185 5.35301C13.5185 7.84879 11.4953 9.87203 8.99951 9.87203C6.50371 9.87203 4.48047 7.84879 4.48047 5.35301Z" fill="#4D3E3E"/>
<path id="Vector (Stroke)_2" fill-rule="evenodd" clip-rule="evenodd" d="M3.33053 12.9313C4.68869 12.1206 6.52624 11.5806 8.99961 11.5806C11.473 11.5806 13.3105 12.1206 14.6687 12.9313C16.0274 13.7424 16.863 14.7984 17.372 15.7622L17.3721 15.7623C17.8276 16.6249 17.6785 17.5199 17.1615 18.1691C16.6642 18.7936 15.8547 19.1664 14.9858 19.1664H3.01347C2.14451 19.1664 1.33503 18.7936 0.83772 18.1691C0.320683 17.5198 0.171657 16.6249 0.627231 15.7623C1.13625 14.7985 1.97178 13.7424 3.33053 12.9313ZM4.09238 14.2076C3.00291 14.8579 2.34392 15.6946 1.9416 16.4564L1.94159 16.4564C1.77762 16.7669 1.82978 17.0288 2.00049 17.2432C2.19092 17.4823 2.55575 17.68 3.01347 17.68H14.9858C15.4435 17.68 15.8083 17.4823 15.9987 17.2432C16.1694 17.0288 16.2216 16.7669 16.0577 16.4564C15.6553 15.6946 14.9963 14.8579 13.9068 14.2076C12.8168 13.5569 11.2524 13.067 8.99961 13.067C6.74682 13.067 5.18244 13.5569 4.09238 14.2076Z" fill="#4D3E3E"/>
</g>
</svg>
